<?xml version="1.0" encoding="UTF-8"?>
<svg id="Layer_1" data-name="Layer 1" xmlns="http://www.w3.org/2000/svg" viewBox="0 0 323.64 46.42">
  <defs>
    <style>
      .cls-1 {
        fill: #f94144;
      }

      .cls-2 {
        fill: #6eb57a;
      }

      .cls-3 {
        fill: #46a18c;
      }

      .cls-4 {
        fill: #f78e21;
      }

      .cls-5 {
        fill: #bfc260;
      }

      .cls-6 {
        fill: #277da1;
      }

      .cls-7 {
        fill: #f46d2f;
      }

      .cls-8 {
        fill: #4f8a8e;
      }

      .cls-9 {
        fill: none;
      }

      .cls-10 {
        fill: #f9b73f;
      }

      .cls-11 {
        font-family: TrebuchetMS, 'Trebuchet MS';
        font-size: 11px;
        isolation: isolate;
      }

      .cls-11, .cls-12 {
        fill: #404040;
      }

      .cls-13 {
        fill: #527692;
      }
    </style>
  </defs>
  <rect class="cls-9" x=".04" y="35.4" width="23.7" height="8.2"/>
  <text class="cls-11" transform="translate(0 43.53)"><tspan x="0" y="0">1633</tspan></text>
  <rect class="cls-9" x="29.94" y="35.4" width="23.7" height="8.2"/>
  <text class="cls-11" transform="translate(29.99 43.53)"><tspan x="0" y="0">1880</tspan></text>
  <rect class="cls-9" x="59.94" y="35.4" width="23.7" height="8.2"/>
  <text class="cls-11" transform="translate(59.99 43.53)"><tspan x="0" y="0">1900</tspan></text>
  <rect class="cls-9" x="89.94" y="35.4" width="23.7" height="8.2"/>
  <text class="cls-11" transform="translate(89.99 43.53)"><tspan x="0" y="0">1910</tspan></text>
  <rect class="cls-9" x="119.94" y="35.4" width="23.7" height="8.2"/>
  <text class="cls-11" transform="translate(119.99 43.53)"><tspan x="0" y="0">1920</tspan></text>
  <rect class="cls-9" x="149.94" y="35.4" width="23.7" height="8.2"/>
  <text class="cls-11" transform="translate(149.99 43.53)"><tspan x="0" y="0">1930</tspan></text>
  <rect class="cls-9" x="179.94" y="35.4" width="23.7" height="8.2"/>
  <text class="cls-11" transform="translate(179.99 43.53)"><tspan x="0" y="0">1940</tspan></text>
  <rect class="cls-9" x="209.94" y="35.4" width="23.7" height="8.2"/>
  <text class="cls-11" transform="translate(209.99 43.53)"><tspan x="0" y="0">1960</tspan></text>
  <rect class="cls-9" x="239.94" y="35.4" width="23.7" height="8.2"/>
  <text class="cls-11" transform="translate(239.99 43.53)"><tspan x="0" y="0">1980</tspan></text>
  <rect class="cls-9" x="269.94" y="35.4" width="23.7" height="8.2"/>
  <text class="cls-11" transform="translate(269.99 43.53)"><tspan x="0" y="0">2000</tspan></text>
  <rect class="cls-9" x="299.94" y="35.4" width="23.7" height="8.2"/>
  <text class="cls-11" transform="translate(299.99 43.53)"><tspan x="0" y="0">2023</tspan></text>
  <rect class="cls-1" x="11.84" width="30" height="26.4"/>
  <rect class="cls-7" x="41.84" width="30" height="26.4"/>
  <rect class="cls-4" x="71.84" width="30" height="26.4"/>
  <rect class="cls-10" x="101.84" width="30" height="26.4"/>
  <rect class="cls-5" x="131.84" width="30" height="26.4"/>
  <rect class="cls-2" x="161.64" width="30" height="26.4"/>
  <rect class="cls-3" x="191.84" width="30" height="26.4"/>
  <rect class="cls-8" x="221.84" width="30" height="26.4"/>
  <rect class="cls-13" x="251.84" width="30" height="26.4"/>
  <rect class="cls-6" x="281.84" width="30" height="26.4"/>
  <rect class="cls-12" x="11.54" width=".6" height="31.2"/>
  <rect class="cls-12" x="41.54" width=".6" height="31.2"/>
  <rect class="cls-12" x="71.54" width=".6" height="31.2"/>
  <rect class="cls-12" x="101.54" width=".6" height="31.2"/>
  <rect class="cls-12" x="131.54" width=".6" height="31.2"/>
  <rect class="cls-12" x="161.34" width=".6" height="31.2"/>
  <rect class="cls-12" x="191.54" width=".6" height="31.2"/>
  <rect class="cls-12" x="221.54" width=".6" height="31.2"/>
  <rect class="cls-12" x="251.54" width=".6" height="31.2"/>
  <rect class="cls-12" x="281.64" width=".6" height="31.2"/>
  <rect class="cls-12" x="311.54" width=".6" height="31.2"/>
</svg>