<?xml version="1.0" encoding="utf-8"?>
<!-- Generator: Adobe Illustrator 27.2.0, SVG Export Plug-In . SVG Version: 6.00 Build 0)  -->
<svg version="1.1" id="Layer_1" xmlns="http://www.w3.org/2000/svg" xmlns:xlink="http://www.w3.org/1999/xlink" x="0px" y="0px"
	 viewBox="0 0 338 62" style="enable-background:new 0 0 338 62;" xml:space="preserve">
<style type="text/css">
	.st0{fill:none;}
	.st1{fill:#404040;}
	.st2{font-family:'TrebuchetMS';}
	.st3{font-size:11px;}
	.st4{fill:#F94144;}
	.st5{fill:#F46D2F;}
	.st6{fill:#F78E21;}
	.st7{fill:#F9B73F;}
	.st8{fill:#BFC260;}
	.st9{fill:#6EB57A;}
	.st10{fill:#46A18C;}
	.st11{fill:#4F8A8E;}
	.st12{fill:#527692;}
	.st13{fill:#277DA1;}
</style>
<rect x="6.7" y="47.4" class="st0" width="23.7" height="8.2"/>
<text transform="matrix(1 0 0 1 6.6586 55.532)" class="st1 st2 st3">1633</text>
<rect x="36.6" y="47.4" class="st0" width="23.7" height="8.2"/>
<text transform="matrix(1 0 0 1 36.6502 55.532)" class="st1 st2 st3">1880</text>
<rect x="66.6" y="47.4" class="st0" width="23.7" height="8.2"/>
<text transform="matrix(1 0 0 1 66.6502 55.532)" class="st1 st2 st3">1900</text>
<rect x="96.6" y="47.4" class="st0" width="23.7" height="8.2"/>
<text transform="matrix(1 0 0 1 96.6502 55.532)" class="st1 st2 st3">1910</text>
<rect x="126.6" y="47.4" class="st0" width="23.7" height="8.2"/>
<text transform="matrix(1 0 0 1 126.6502 55.532)" class="st1 st2 st3">1920</text>
<rect x="156.6" y="47.4" class="st0" width="23.7" height="8.2"/>
<text transform="matrix(1 0 0 1 156.6501 55.532)" class="st1 st2 st3">1930</text>
<rect x="186.6" y="47.4" class="st0" width="23.7" height="8.2"/>
<text transform="matrix(1 0 0 1 186.6501 55.532)" class="st1 st2 st3">1940</text>
<rect x="216.6" y="47.4" class="st0" width="23.7" height="8.2"/>
<text transform="matrix(1 0 0 1 216.6501 55.532)" class="st1 st2 st3">1960</text>
<rect x="246.6" y="47.4" class="st0" width="23.7" height="8.2"/>
<text transform="matrix(1 0 0 1 246.6502 55.532)" class="st1 st2 st3">1980</text>
<rect x="276.6" y="47.4" class="st0" width="23.7" height="8.2"/>
<text transform="matrix(1 0 0 1 276.6501 55.532)" class="st1 st2 st3">2000</text>
<rect x="306.6" y="47.4" class="st0" width="23.7" height="8.2"/>
<text transform="matrix(1 0 0 1 306.6501 55.532)" class="st1 st2 st3">2023</text>
<rect x="18.5" y="12" class="st4" width="30" height="26.4"/>
<rect x="48.5" y="12" class="st5" width="30" height="26.4"/>
<rect x="78.5" y="12" class="st6" width="30" height="26.4"/>
<rect x="108.5" y="12" class="st7" width="30" height="26.4"/>
<rect x="138.5" y="12" class="st8" width="30" height="26.4"/>
<rect x="168.3" y="12" class="st9" width="30" height="26.4"/>
<rect x="198.5" y="12" class="st10" width="30" height="26.4"/>
<rect x="228.5" y="12" class="st11" width="30" height="26.4"/>
<rect x="258.5" y="12" class="st12" width="30" height="26.4"/>
<rect x="288.5" y="12" class="st13" width="30" height="26.4"/>
<rect x="18.2" y="12" class="st1" width="0.6" height="31.2"/>
<rect x="48.2" y="12" class="st1" width="0.6" height="31.2"/>
<rect x="78.2" y="12" class="st1" width="0.6" height="31.2"/>
<rect x="108.2" y="12" class="st1" width="0.6" height="31.2"/>
<rect x="138.2" y="12" class="st1" width="0.6" height="31.2"/>
<rect x="168" y="12" class="st1" width="0.6" height="31.2"/>
<rect x="198.2" y="12" class="st1" width="0.6" height="31.2"/>
<rect x="228.2" y="12" class="st1" width="0.6" height="31.2"/>
<rect x="258.2" y="12" class="st1" width="0.6" height="31.2"/>
<rect x="288.3" y="12" class="st1" width="0.6" height="31.2"/>
<rect x="318.2" y="12" class="st1" width="0.6" height="31.2"/>
</svg>
